<?xml version="1.0" encoding="UTF-8" standalone="no"?><svg xmlns="http://www.w3.org/2000/svg" xmlns:xlink="http://www.w3.org/1999/xlink" clip-rule="evenodd" stroke-miterlimit="10" viewBox="0 0 1024 768"><desc>SVG generated by Keynote</desc><defs></defs><g transform="matrix(1.00, 0.00, -0.00, -1.00, 0.0, 768.0)"><path d="M 0.0 768.0 L 1024.0 768.0 L 1024.0 0.0 L 0.0 0.0 Z M 0.0 768.0 " fill="#FEFFFE"></path><text xml:space="preserve" font-family="Helvetica-Light,Helvetica" font-size="36.5" fill="#000000" transform="matrix(1.00, 0.00, -0.00, -1.00, 26.9, 679.4)">D</text><text xml:space="preserve" font-family="Helvetica-Light,Helvetica" font-size="36.5" fill="#000000" transform="matrix(1.00, 0.00, -0.00, -1.00, 53.2, 679.4)">e</text><text xml:space="preserve" font-family="Helvetica-Light,Helvetica" font-size="36.5" fill="#000000" transform="matrix(1.00, 0.00, -0.00, -1.00, 73.5, 679.4)">t</text><text xml:space="preserve" font-family="Helvetica-Light,Helvetica" font-size="36.5" fill="#000000" transform="matrix(1.00, 0.00, -0.00, -1.00, 83.6, 679.4)">e</text><text xml:space="preserve" font-family="Helvetica-Light,Helvetica" font-size="36.5" fill="#000000" transform="matrix(1.00, 0.00, -0.00, -1.00, 103.9, 679.4)">c</text><text xml:space="preserve" font-family="Helvetica-Light,Helvetica" font-size="36.5" fill="#000000" transform="matrix(1.00, 0.00, -0.00, -1.00, 124.2, 679.4)">c</text><text xml:space="preserve" font-family="Helvetica-Light,Helvetica" font-size="36.5" fill="#000000" transform="matrix(1.00, 0.00, -0.00, -1.00, 144.5, 679.4)">i</text><text xml:space="preserve" font-family="Helvetica-Light,Helvetica" font-size="36.5" fill="#000000" transform="matrix(1.00, 0.00, -0.00, -1.00, 152.6, 679.4)">ó</text><text xml:space="preserve" font-family="Helvetica-Light,Helvetica" font-size="36.5" fill="#000000" transform="matrix(1.00, 0.00, -0.00, -1.00, 172.9, 679.4)">n</text><text xml:space="preserve" font-family="Helvetica-Light,Helvetica" font-size="36.5" fill="#000000" transform="matrix(1.00, 0.00, -0.00, -1.00, 193.2, 679.4)">,</text><text xml:space="preserve" font-family="Helvetica-Light,Helvetica" font-size="36.5" fill="#000000" transform="matrix(1.00, 0.00, -0.00, -1.00, 203.4, 679.4)"> </text><text xml:space="preserve" font-family="Helvetica-Bold,Helvetica" font-weight="bold" font-size="36.5" fill="#000000" transform="matrix(1.00, 0.00, -0.00, -1.00, 213.5, 679.4)">r</text><text xml:space="preserve" font-family="Helvetica-Bold,Helvetica" font-weight="bold" font-size="36.5" fill="#000000" transform="matrix(1.00, 0.00, -0.00, -1.00, 227.7, 679.4)">a</text><text xml:space="preserve" font-family="Helvetica-Bold,Helvetica" font-weight="bold" font-size="36.5" fill="#000000" transform="matrix(1.00, 0.00, -0.00, -1.00, 248.0, 679.4)">s</text><text xml:space="preserve" font-family="Helvetica-Bold,Helvetica" font-weight="bold" font-size="36.5" fill="#000000" transform="matrix(1.00, 0.00, -0.00, -1.00, 268.3, 679.4)">t</text><text xml:space="preserve" font-family="Helvetica-Bold,Helvetica" font-weight="bold" font-size="36.5" fill="#000000" transform="matrix(1.00, 0.00, -0.00, -1.00, 280.5, 679.4)">r</text><text xml:space="preserve" font-family="Helvetica-Bold,Helvetica" font-weight="bold" font-size="36.5" fill="#000000" transform="matrix(1.00, 0.00, -0.00, -1.00, 294.7, 679.4)">e</text><text xml:space="preserve" font-family="Helvetica-Bold,Helvetica" font-weight="bold" font-size="36.5" fill="#000000" transform="matrix(1.00, 0.00, -0.00, -1.00, 315.0, 679.4)">o</text><text xml:space="preserve" font-family="Helvetica-Light,Helvetica" font-size="36.5" fill="#000000" transform="matrix(1.00, 0.00, -0.00, -1.00, 337.3, 679.4)">,</text><text xml:space="preserve" font-family="Helvetica-Light,Helvetica" font-size="36.5" fill="#000000" transform="matrix(1.00, 0.00, -0.00, -1.00, 347.4, 679.4)"> </text><text xml:space="preserve" font-family="Helvetica-Light,Helvetica" font-size="36.5" fill="#000000" transform="matrix(1.00, 0.00, -0.00, -1.00, 357.6, 679.4)">e</text><text xml:space="preserve" font-family="Helvetica-Light,Helvetica" font-size="36.5" fill="#000000" transform="matrix(1.00, 0.00, -0.00, -1.00, 377.9, 679.4)">s</text><text xml:space="preserve" font-family="Helvetica-Light,Helvetica" font-size="36.5" fill="#000000" transform="matrix(1.00, 0.00, -0.00, -1.00, 396.1, 679.4)">t</text><text xml:space="preserve" font-family="Helvetica-Light,Helvetica" font-size="36.5" fill="#000000" transform="matrix(1.00, 0.00, -0.00, -1.00, 406.3, 679.4)">i</text><text xml:space="preserve" font-family="Helvetica-Light,Helvetica" font-size="36.5" fill="#000000" transform="matrix(1.00, 0.00, -0.00, -1.00, 414.4, 679.4)">m</text><text xml:space="preserve" font-family="Helvetica-Light,Helvetica" font-size="36.5" fill="#000000" transform="matrix(1.00, 0.00, -0.00, -1.00, 444.8, 679.4)">a</text><text xml:space="preserve" font-family="Helvetica-Light,Helvetica" font-size="36.5" fill="#000000" transform="matrix(1.00, 0.00, -0.00, -1.00, 465.1, 679.4)">c</text><text xml:space="preserve" font-family="Helvetica-Light,Helvetica" font-size="36.5" fill="#000000" transform="matrix(1.00, 0.00, -0.00, -1.00, 485.3, 679.4)">i</text><text xml:space="preserve" font-family="Helvetica-Light,Helvetica" font-size="36.5" fill="#000000" transform="matrix(1.00, 0.00, -0.00, -1.00, 493.5, 679.4)">ó</text><text xml:space="preserve" font-family="Helvetica-Light,Helvetica" font-size="36.5" fill="#000000" transform="matrix(1.00, 0.00, -0.00, -1.00, 513.7, 679.4)">n</text><text xml:space="preserve" font-family="Helvetica-Light,Helvetica" font-size="36.5" fill="#000000" transform="matrix(1.00, 0.00, -0.00, -1.00, 534.0, 679.4)"> </text><text xml:space="preserve" font-family="Helvetica-Light,Helvetica" font-size="36.5" fill="#000000" transform="matrix(1.00, 0.00, -0.00, -1.00, 544.2, 679.4)">d</text><text xml:space="preserve" font-family="Helvetica-Light,Helvetica" font-size="36.5" fill="#000000" transform="matrix(1.00, 0.00, -0.00, -1.00, 566.5, 679.4)">e</text><text xml:space="preserve" font-family="Helvetica-Light,Helvetica" font-size="36.5" fill="#000000" transform="matrix(1.00, 0.00, -0.00, -1.00, 586.8, 679.4)"> </text><text xml:space="preserve" font-family="Helvetica-Light,Helvetica" font-size="36.5" fill="#000000" transform="matrix(1.00, 0.00, -0.00, -1.00, 596.9, 679.4)">l</text><text xml:space="preserve" font-family="Helvetica-Light,Helvetica" font-size="36.5" fill="#000000" transform="matrix(1.00, 0.00, -0.00, -1.00, 605.0, 679.4)">a</text><text xml:space="preserve" font-family="Helvetica-Light,Helvetica" font-size="36.5" fill="#000000" transform="matrix(1.00, 0.00, -0.00, -1.00, 625.3, 679.4)"> </text><text xml:space="preserve" font-family="Helvetica-Light,Helvetica" font-size="36.5" fill="#000000" transform="matrix(1.00, 0.00, -0.00, -1.00, 635.5, 679.4)">v</text><text xml:space="preserve" font-family="Helvetica-Light,Helvetica" font-size="36.5" fill="#000000" transform="matrix(1.00, 0.00, -0.00, -1.00, 653.7, 679.4)">e</text><text xml:space="preserve" font-family="Helvetica-Light,Helvetica" font-size="36.5" fill="#000000" transform="matrix(1.00, 0.00, -0.00, -1.00, 674.0, 679.4)">l</text><text xml:space="preserve" font-family="Helvetica-Light,Helvetica" font-size="36.5" fill="#000000" transform="matrix(1.00, 0.00, -0.00, -1.00, 682.1, 679.4)">o</text><text xml:space="preserve" font-family="Helvetica-Light,Helvetica" font-size="36.5" fill="#000000" transform="matrix(1.00, 0.00, -0.00, -1.00, 702.4, 679.4)">c</text><text xml:space="preserve" font-family="Helvetica-Light,Helvetica" font-size="36.5" fill="#000000" transform="matrix(1.00, 0.00, -0.00, -1.00, 722.7, 679.4)">i</text><text xml:space="preserve" font-family="Helvetica-Light,Helvetica" font-size="36.5" fill="#000000" transform="matrix(1.00, 0.00, -0.00, -1.00, 730.8, 679.4)">d</text><text xml:space="preserve" font-family="Helvetica-Light,Helvetica" font-size="36.5" fill="#000000" transform="matrix(1.00, 0.00, -0.00, -1.00, 753.1, 679.4)">a</text><text xml:space="preserve" font-family="Helvetica-Light,Helvetica" font-size="36.5" fill="#000000" transform="matrix(1.00, 0.00, -0.00, -1.00, 773.4, 679.4)">d</text><text xml:space="preserve" font-family="Helvetica-Light,Helvetica" font-size="36.5" fill="#000000" transform="matrix(1.00, 0.00, -0.00, -1.00, 795.7, 679.4)"> </text><text xml:space="preserve" font-family="Helvetica-Light,Helvetica" font-size="36.5" fill="#000000" transform="matrix(1.00, 0.00, -0.00, -1.00, 805.9, 679.4)">p</text><text xml:space="preserve" font-family="Helvetica-Light,Helvetica" font-size="36.5" fill="#000000" transform="matrix(1.00, 0.00, -0.00, -1.00, 828.2, 679.4)">r</text><text xml:space="preserve" font-family="Helvetica-Light,Helvetica" font-size="36.5" fill="#000000" transform="matrix(1.00, 0.00, -0.00, -1.00, 839.7, 679.4)">o</text><text xml:space="preserve" font-family="Helvetica-Light,Helvetica" font-size="36.5" fill="#000000" transform="matrix(1.00, 0.00, -0.00, -1.00, 859.9, 679.4)">m</text><text xml:space="preserve" font-family="Helvetica-Light,Helvetica" font-size="36.5" fill="#000000" transform="matrix(1.00, 0.00, -0.00, -1.00, 890.4, 679.4)">e</text><text xml:space="preserve" font-family="Helvetica-Light,Helvetica" font-size="36.5" fill="#000000" transform="matrix(1.00, 0.00, -0.00, -1.00, 910.6, 679.4)">d</text><text xml:space="preserve" font-family="Helvetica-Light,Helvetica" font-size="36.5" fill="#000000" transform="matrix(1.00, 0.00, -0.00, -1.00, 932.9, 679.4)">i</text><text xml:space="preserve" font-family="Helvetica-Light,Helvetica" font-size="36.5" fill="#000000" transform="matrix(1.00, 0.00, -0.00, -1.00, 941.1, 679.4)">o</text><text xml:space="preserve" font-family="Helvetica-Light,Helvetica" font-size="36.5" fill="#000000" transform="matrix(1.00, 0.00, -0.00, -1.00, 961.3, 679.4)">.</text><text xml:space="preserve" font-family="Helvetica-Light,Helvetica" font-size="18.9" fill="#000000" transform="matrix(1.00, 0.00, -0.00, -1.00, 554.5, 577.1)">•</text><text xml:space="preserve" font-family="Helvetica-Light,Helvetica" font-size="25.2" fill="#000000" transform="matrix(1.00, 0.00, -0.00, -1.00, 578.8, 575.1)">D</text><text xml:space="preserve" font-family="Helvetica-Light,Helvetica" font-size="25.2" fill="#000000" transform="matrix(1.00, 0.00, -0.00, -1.00, 597.0, 575.1)">e</text><text xml:space="preserve" font-family="Helvetica-Light,Helvetica" font-size="25.2" fill="#000000" transform="matrix(1.00, 0.00, -0.00, -1.00, 611.0, 575.1)">s</text><text xml:space="preserve" font-family="Helvetica-Light,Helvetica" font-size="25.2" fill="#000000" transform="matrix(1.00, 0.00, -0.00, -1.00, 623.6, 575.1)">p</text><text xml:space="preserve" font-family="Helvetica-Light,Helvetica" font-size="25.2" fill="#000000" transform="matrix(1.00, 0.00, -0.00, -1.00, 639.0, 575.1)">u</text><text xml:space="preserve" font-family="Helvetica-Light,Helvetica" font-size="25.2" fill="#000000" transform="matrix(1.00, 0.00, -0.00, -1.00, 653.0, 575.1)">é</text><text xml:space="preserve" font-family="Helvetica-Light,Helvetica" font-size="25.2" fill="#000000" transform="matrix(1.00, 0.00, -0.00, -1.00, 667.1, 575.1)">s</text><text xml:space="preserve" font-family="Helvetica-Light,Helvetica" font-size="25.2" fill="#000000" transform="matrix(1.00, 0.00, -0.00, -1.00, 679.7, 575.1)"> </text><text xml:space="preserve" font-family="Helvetica-Light,Helvetica" font-size="25.2" fill="#000000" transform="matrix(1.00, 0.00, -0.00, -1.00, 686.7, 575.1)">d</text><text xml:space="preserve" font-family="Helvetica-Light,Helvetica" font-size="25.2" fill="#000000" transform="matrix(1.00, 0.00, -0.00, -1.00, 702.1, 575.1)">e</text><text xml:space="preserve" font-family="Helvetica-Light,Helvetica" font-size="25.2" fill="#000000" transform="matrix(1.00, 0.00, -0.00, -1.00, 716.1, 575.1)"> </text><text xml:space="preserve" font-family="Helvetica-Light,Helvetica" font-size="25.2" fill="#000000" transform="matrix(1.00, 0.00, -0.00, -1.00, 723.1, 575.1)">s</text><text xml:space="preserve" font-family="Helvetica-Light,Helvetica" font-size="25.2" fill="#000000" transform="matrix(1.00, 0.00, -0.00, -1.00, 735.7, 575.1)">u</text><text xml:space="preserve" font-family="Helvetica-Light,Helvetica" font-size="25.2" fill="#000000" transform="matrix(1.00, 0.00, -0.00, -1.00, 749.7, 575.1)">s</text><text xml:space="preserve" font-family="Helvetica-Light,Helvetica" font-size="25.2" fill="#000000" transform="matrix(1.00, 0.00, -0.00, -1.00, 762.3, 575.1)">t</text><text xml:space="preserve" font-family="Helvetica-Light,Helvetica" font-size="25.2" fill="#000000" transform="matrix(1.00, 0.00, -0.00, -1.00, 769.3, 575.1)">r</text><text xml:space="preserve" font-family="Helvetica-Light,Helvetica" font-size="25.2" fill="#000000" transform="matrix(1.00, 0.00, -0.00, -1.00, 777.7, 575.1)">a</text><text xml:space="preserve" font-family="Helvetica-Light,Helvetica" font-size="25.2" fill="#000000" transform="matrix(1.00, 0.00, -0.00, -1.00, 791.7, 575.1)">e</text><text xml:space="preserve" font-family="Helvetica-Light,Helvetica" font-size="25.2" fill="#000000" transform="matrix(1.00, 0.00, -0.00, -1.00, 805.7, 575.1)">r</text><text xml:space="preserve" font-family="Helvetica-Light,Helvetica" font-size="25.2" fill="#000000" transform="matrix(1.00, 0.00, -0.00, -1.00, 814.1, 575.1)"> </text><text xml:space="preserve" font-family="Helvetica-Light,Helvetica" font-size="25.2" fill="#000000" transform="matrix(1.00, 0.00, -0.00, -1.00, 821.1, 575.1)">e</text><text xml:space="preserve" font-family="Helvetica-Light,Helvetica" font-size="25.2" fill="#000000" transform="matrix(1.00, 0.00, -0.00, -1.00, 835.1, 575.1)">l</text><text xml:space="preserve" font-family="Helvetica-Light,Helvetica" font-size="25.2" fill="#000000" transform="matrix(1.00, 0.00, -0.00, -1.00, 840.7, 575.1)"> </text><text xml:space="preserve" font-family="Helvetica-Light,Helvetica" font-size="25.2" fill="#000000" transform="matrix(1.00, 0.00, -0.00, -1.00, 847.7, 575.1)">f</text><text xml:space="preserve" font-family="Helvetica-Light,Helvetica" font-size="25.2" fill="#000000" transform="matrix(1.00, 0.00, -0.00, -1.00, 854.7, 575.1)">o</text><text xml:space="preserve" font-family="Helvetica-Light,Helvetica" font-size="25.2" fill="#000000" transform="matrix(1.00, 0.00, -0.00, -1.00, 868.7, 575.1)">n</text><text xml:space="preserve" font-family="Helvetica-Light,Helvetica" font-size="25.2" fill="#000000" transform="matrix(1.00, 0.00, -0.00, -1.00, 882.7, 575.1)">d</text><text xml:space="preserve" font-family="Helvetica-Light,Helvetica" font-size="25.2" fill="#000000" transform="matrix(1.00, 0.00, -0.00, -1.00, 898.1, 575.1)">o</text><text xml:space="preserve" font-family="Helvetica-Light,Helvetica" font-size="25.2" fill="#000000" transform="matrix(1.00, 0.00, -0.00, -1.00, 912.2, 575.1)">,</text><text xml:space="preserve" font-family="Helvetica-Light,Helvetica" font-size="25.2" fill="#000000" transform="matrix(1.00, 0.00, -0.00, -1.00, 919.2, 575.1)"> </text><text xml:space="preserve" font-family="Helvetica-Light,Helvetica" font-size="25.2" fill="#000000" transform="matrix(1.00, 0.00, -0.00, -1.00, 926.2, 575.1)">e</text><text xml:space="preserve" font-family="Helvetica-Light,Helvetica" font-size="25.2" fill="#000000" transform="matrix(1.00, 0.00, -0.00, -1.00, 940.2, 575.1)">s</text><text xml:space="preserve" font-family="Helvetica-Light,Helvetica" font-size="25.2" fill="#000000" transform="matrix(1.00, 0.00, -0.00, -1.00, 952.8, 575.1)"> </text><text xml:space="preserve" font-family="Helvetica-Light,Helvetica" font-size="25.2" fill="#000000" transform="matrix(1.00, 0.00, -0.00, -1.00, 578.8, 545.1)">n</text><text xml:space="preserve" font-family="Helvetica-Light,Helvetica" font-size="25.2" fill="#000000" transform="matrix(1.00, 0.00, -0.00, -1.00, 592.8, 545.1)">e</text><text xml:space="preserve" font-family="Helvetica-Light,Helvetica" font-size="25.2" fill="#000000" transform="matrix(1.00, 0.00, -0.00, -1.00, 606.9, 545.1)">c</text><text xml:space="preserve" font-family="Helvetica-Light,Helvetica" font-size="25.2" fill="#000000" transform="matrix(1.00, 0.00, -0.00, -1.00, 620.9, 545.1)">e</text><text xml:space="preserve" font-family="Helvetica-Light,Helvetica" font-size="25.2" fill="#000000" transform="matrix(1.00, 0.00, -0.00, -1.00, 634.9, 545.1)">s</text><text xml:space="preserve" font-family="Helvetica-Light,Helvetica" font-size="25.2" fill="#000000" transform="matrix(1.00, 0.00, -0.00, -1.00, 647.5, 545.1)">a</text><text xml:space="preserve" font-family="Helvetica-Light,Helvetica" font-size="25.2" fill="#000000" transform="matrix(1.00, 0.00, -0.00, -1.00, 661.5, 545.1)">r</text><text xml:space="preserve" font-family="Helvetica-Light,Helvetica" font-size="25.2" fill="#000000" transform="matrix(1.00, 0.00, -0.00, -1.00, 669.9, 545.1)">i</text><text xml:space="preserve" font-family="Helvetica-Light,Helvetica" font-size="25.2" fill="#000000" transform="matrix(1.00, 0.00, -0.00, -1.00, 675.5, 545.1)">o</text><text xml:space="preserve" font-family="Helvetica-Light,Helvetica" font-size="25.2" fill="#000000" transform="matrix(1.00, 0.00, -0.00, -1.00, 689.5, 545.1)"> </text><text xml:space="preserve" font-family="Helvetica-Light,Helvetica" font-size="25.2" fill="#000000" transform="matrix(1.00, 0.00, -0.00, -1.00, 696.5, 545.1)">i</text><text xml:space="preserve" font-family="Helvetica-Light,Helvetica" font-size="25.2" fill="#000000" transform="matrix(1.00, 0.00, -0.00, -1.00, 702.1, 545.1)">d</text><text xml:space="preserve" font-family="Helvetica-Light,Helvetica" font-size="25.2" fill="#000000" transform="matrix(1.00, 0.00, -0.00, -1.00, 717.5, 545.1)">e</text><text xml:space="preserve" font-family="Helvetica-Light,Helvetica" font-size="25.2" fill="#000000" transform="matrix(1.00, 0.00, -0.00, -1.00, 731.5, 545.1)">n</text><text xml:space="preserve" font-family="Helvetica-Light,Helvetica" font-size="25.2" fill="#000000" transform="matrix(1.00, 0.00, -0.00, -1.00, 745.5, 545.1)">t</text><text xml:space="preserve" font-family="Helvetica-Light,Helvetica" font-size="25.2" fill="#000000" transform="matrix(1.00, 0.00, -0.00, -1.00, 752.5, 545.1)">i</text><text xml:space="preserve" font-family="Helvetica-Light,Helvetica" font-size="25.2" fill="#000000" transform="matrix(1.00, 0.00, -0.00, -1.00, 758.1, 545.1)">ﬁ</text><text xml:space="preserve" font-family="Helvetica-Light,Helvetica" font-size="25.2" fill="#000000" transform="matrix(1.00, 0.00, -0.00, -1.00, 770.7, 545.1)">c</text><text xml:space="preserve" font-family="Helvetica-Light,Helvetica" font-size="25.2" fill="#000000" transform="matrix(1.00, 0.00, -0.00, -1.00, 784.7, 545.1)">a</text><text xml:space="preserve" font-family="Helvetica-Light,Helvetica" font-size="25.2" fill="#000000" transform="matrix(1.00, 0.00, -0.00, -1.00, 798.7, 545.1)">r</text><text xml:space="preserve" font-family="Helvetica-Light,Helvetica" font-size="25.2" fill="#000000" transform="matrix(1.00, 0.00, -0.00, -1.00, 807.1, 545.1)"> </text><text xml:space="preserve" font-family="Helvetica-Light,Helvetica" font-size="25.2" fill="#000000" transform="matrix(1.00, 0.00, -0.00, -1.00, 814.1, 545.1)">e</text><text xml:space="preserve" font-family="Helvetica-Light,Helvetica" font-size="25.2" fill="#000000" transform="matrix(1.00, 0.00, -0.00, -1.00, 828.1, 545.1)">l</text><text xml:space="preserve" font-family="Helvetica-Light,Helvetica" font-size="25.2" fill="#000000" transform="matrix(1.00, 0.00, -0.00, -1.00, 833.7, 545.1)"> </text><text xml:space="preserve" font-family="Helvetica-Light,Helvetica" font-size="25.2" fill="#000000" transform="matrix(1.00, 0.00, -0.00, -1.00, 840.7, 545.1)">a</text><text xml:space="preserve" font-family="Helvetica-Light,Helvetica" font-size="25.2" fill="#000000" transform="matrix(1.00, 0.00, -0.00, -1.00, 854.7, 545.1)">u</text><text xml:space="preserve" font-family="Helvetica-Light,Helvetica" font-size="25.2" fill="#000000" transform="matrix(1.00, 0.00, -0.00, -1.00, 868.8, 545.1)">t</text><text xml:space="preserve" font-family="Helvetica-Light,Helvetica" font-size="25.2" fill="#000000" transform="matrix(1.00, 0.00, -0.00, -1.00, 875.8, 545.1)">o</text><text xml:space="preserve" font-family="Helvetica-Light,Helvetica" font-size="25.2" fill="#000000" transform="matrix(1.00, 0.00, -0.00, -1.00, 889.8, 545.1)">,</text><text xml:space="preserve" font-family="Helvetica-Light,Helvetica" font-size="25.2" fill="#000000" transform="matrix(1.00, 0.00, -0.00, -1.00, 896.8, 545.1)"> </text><text xml:space="preserve" font-family="Helvetica-Light,Helvetica" font-size="25.2" fill="#000000" transform="matrix(1.00, 0.00, -0.00, -1.00, 903.8, 545.1)">y</text><text xml:space="preserve" font-family="Helvetica-Light,Helvetica" font-size="25.2" fill="#000000" transform="matrix(1.00, 0.00, -0.00, -1.00, 916.4, 545.1)"> </text><text xml:space="preserve" font-family="Helvetica-Light,Helvetica" font-size="25.2" fill="#000000" transform="matrix(1.00, 0.00, -0.00, -1.00, 923.4, 545.1)">n</text><text xml:space="preserve" font-family="Helvetica-Light,Helvetica" font-size="25.2" fill="#000000" transform="matrix(1.00, 0.00, -0.00, -1.00, 937.4, 545.1)">o</text><text xml:space="preserve" font-family="Helvetica-Light,Helvetica" font-size="25.2" fill="#000000" transform="matrix(1.00, 0.00, -0.00, -1.00, 951.4, 545.1)"> </text><text xml:space="preserve" font-family="Helvetica-Light,Helvetica" font-size="25.2" fill="#000000" transform="matrix(1.00, 0.00, -0.00, -1.00, 578.8, 515.1)">“</text><text xml:space="preserve" font-family="Helvetica-Light,Helvetica" font-size="25.2" fill="#000000" transform="matrix(1.00, 0.00, -0.00, -1.00, 588.6, 515.1)">p</text><text xml:space="preserve" font-family="Helvetica-Light,Helvetica" font-size="25.2" fill="#000000" transform="matrix(1.00, 0.00, -0.00, -1.00, 604.0, 515.1)">e</text><text xml:space="preserve" font-family="Helvetica-Light,Helvetica" font-size="25.2" fill="#000000" transform="matrix(1.00, 0.00, -0.00, -1.00, 618.0, 515.1)">r</text><text xml:space="preserve" font-family="Helvetica-Light,Helvetica" font-size="25.2" fill="#000000" transform="matrix(1.00, 0.00, -0.00, -1.00, 626.0, 515.1)">d</text><text xml:space="preserve" font-family="Helvetica-Light,Helvetica" font-size="25.2" fill="#000000" transform="matrix(1.00, 0.00, -0.00, -1.00, 641.4, 515.1)">e</text><text xml:space="preserve" font-family="Helvetica-Light,Helvetica" font-size="25.2" fill="#000000" transform="matrix(1.00, 0.00, -0.00, -1.00, 655.4, 515.1)">r</text><text xml:space="preserve" font-family="Helvetica-Light,Helvetica" font-size="25.2" fill="#000000" transform="matrix(1.00, 0.00, -0.00, -1.00, 663.8, 515.1)">l</text><text xml:space="preserve" font-family="Helvetica-Light,Helvetica" font-size="25.2" fill="#000000" transform="matrix(1.00, 0.00, -0.00, -1.00, 669.4, 515.1)">o</text><text xml:space="preserve" font-family="Helvetica-Light,Helvetica" font-size="25.2" fill="#000000" transform="matrix(1.00, 0.00, -0.00, -1.00, 683.4, 515.1)">”</text><text xml:space="preserve" font-family="Helvetica-Light,Helvetica" font-size="25.2" fill="#000000" transform="matrix(1.00, 0.00, -0.00, -1.00, 693.2, 515.1)"> </text><text xml:space="preserve" font-family="Helvetica-Light,Helvetica" font-size="25.2" fill="#000000" transform="matrix(1.00, 0.00, -0.00, -1.00, 700.2, 515.1)">e</text><text xml:space="preserve" font-family="Helvetica-Light,Helvetica" font-size="25.2" fill="#000000" transform="matrix(1.00, 0.00, -0.00, -1.00, 714.2, 515.1)">n</text><text xml:space="preserve" font-family="Helvetica-Light,Helvetica" font-size="25.2" fill="#000000" transform="matrix(1.00, 0.00, -0.00, -1.00, 728.2, 515.1)"> </text><text xml:space="preserve" font-family="Helvetica-Light,Helvetica" font-size="25.2" fill="#000000" transform="matrix(1.00, 0.00, -0.00, -1.00, 735.2, 515.1)">e</text><text xml:space="preserve" font-family="Helvetica-Light,Helvetica" font-size="25.2" fill="#000000" transform="matrix(1.00, 0.00, -0.00, -1.00, 749.2, 515.1)">l</text><text xml:space="preserve" font-family="Helvetica-Light,Helvetica" font-size="25.2" fill="#000000" transform="matrix(1.00, 0.00, -0.00, -1.00, 754.8, 515.1)"> </text><text xml:space="preserve" font-family="Helvetica-Light,Helvetica" font-size="25.2" fill="#000000" transform="matrix(1.00, 0.00, -0.00, -1.00, 761.8, 515.1)">v</text><text xml:space="preserve" font-family="Helvetica-Light,Helvetica" font-size="25.2" fill="#000000" transform="matrix(1.00, 0.00, -0.00, -1.00, 774.4, 515.1)">i</text><text xml:space="preserve" font-family="Helvetica-Light,Helvetica" font-size="25.2" fill="#000000" transform="matrix(1.00, 0.00, -0.00, -1.00, 780.0, 515.1)">d</text><text xml:space="preserve" font-family="Helvetica-Light,Helvetica" font-size="25.2" fill="#000000" transform="matrix(1.00, 0.00, -0.00, -1.00, 795.4, 515.1)">e</text><text xml:space="preserve" font-family="Helvetica-Light,Helvetica" font-size="25.2" fill="#000000" transform="matrix(1.00, 0.00, -0.00, -1.00, 809.4, 515.1)">o</text><text xml:space="preserve" font-family="Helvetica-Light,Helvetica" font-size="25.2" fill="#000000" transform="matrix(1.00, 0.00, -0.00, -1.00, 823.4, 515.1)"> </text><text xml:space="preserve" font-family="Helvetica-Light,Helvetica" font-size="18.9" fill="#000000" transform="matrix(1.00, 0.00, -0.00, -1.00, 554.5, 458.3)">•</text><text xml:space="preserve" font-family="Helvetica-Light,Helvetica" font-size="25.2" fill="#000000" transform="matrix(1.00, 0.00, -0.00, -1.00, 578.8, 456.3)">B</text><text xml:space="preserve" font-family="Helvetica-Light,Helvetica" font-size="25.2" fill="#000000" transform="matrix(1.00, 0.00, -0.00, -1.00, 595.6, 456.3)">i</text><text xml:space="preserve" font-family="Helvetica-Light,Helvetica" font-size="25.2" fill="#000000" transform="matrix(1.00, 0.00, -0.00, -1.00, 601.2, 456.3)">b</text><text xml:space="preserve" font-family="Helvetica-Light,Helvetica" font-size="25.2" fill="#000000" transform="matrix(1.00, 0.00, -0.00, -1.00, 616.6, 456.3)">l</text><text xml:space="preserve" font-family="Helvetica-Light,Helvetica" font-size="25.2" fill="#000000" transform="matrix(1.00, 0.00, -0.00, -1.00, 622.2, 456.3)">i</text><text xml:space="preserve" font-family="Helvetica-Light,Helvetica" font-size="25.2" fill="#000000" transform="matrix(1.00, 0.00, -0.00, -1.00, 627.8, 456.3)">o</text><text xml:space="preserve" font-family="Helvetica-Light,Helvetica" font-size="25.2" fill="#000000" transform="matrix(1.00, 0.00, -0.00, -1.00, 641.8, 456.3)">t</text><text xml:space="preserve" font-family="Helvetica-Light,Helvetica" font-size="25.2" fill="#000000" transform="matrix(1.00, 0.00, -0.00, -1.00, 648.8, 456.3)">e</text><text xml:space="preserve" font-family="Helvetica-Light,Helvetica" font-size="25.2" fill="#000000" transform="matrix(1.00, 0.00, -0.00, -1.00, 662.9, 456.3)">c</text><text xml:space="preserve" font-family="Helvetica-Light,Helvetica" font-size="25.2" fill="#000000" transform="matrix(1.00, 0.00, -0.00, -1.00, 676.9, 456.3)">a</text><text xml:space="preserve" font-family="Helvetica-Light,Helvetica" font-size="25.2" fill="#000000" transform="matrix(1.00, 0.00, -0.00, -1.00, 690.9, 456.3)">s</text><text xml:space="preserve" font-family="Helvetica-Light,Helvetica" font-size="25.2" fill="#000000" transform="matrix(1.00, 0.00, -0.00, -1.00, 703.5, 456.3)"> </text><text xml:space="preserve" font-family="Helvetica-Light,Helvetica" font-size="25.2" fill="#000000" transform="matrix(1.00, 0.00, -0.00, -1.00, 710.5, 456.3)">d</text><text xml:space="preserve" font-family="Helvetica-Light,Helvetica" font-size="25.2" fill="#000000" transform="matrix(1.00, 0.00, -0.00, -1.00, 725.9, 456.3)">e</text><text xml:space="preserve" font-family="Helvetica-Light,Helvetica" font-size="25.2" fill="#000000" transform="matrix(1.00, 0.00, -0.00, -1.00, 739.9, 456.3)"> </text><text xml:space="preserve" font-family="Helvetica-Light,Helvetica" font-size="25.2" fill="#000000" transform="matrix(1.00, 0.00, -0.00, -1.00, 746.9, 456.3)">d</text><text xml:space="preserve" font-family="Helvetica-Light,Helvetica" font-size="25.2" fill="#000000" transform="matrix(1.00, 0.00, -0.00, -1.00, 762.3, 456.3)">e</text><text xml:space="preserve" font-family="Helvetica-Light,Helvetica" font-size="25.2" fill="#000000" transform="matrix(1.00, 0.00, -0.00, -1.00, 776.3, 456.3)">t</text><text xml:space="preserve" font-family="Helvetica-Light,Helvetica" font-size="25.2" fill="#000000" transform="matrix(1.00, 0.00, -0.00, -1.00, 783.3, 456.3)">e</text><text xml:space="preserve" font-family="Helvetica-Light,Helvetica" font-size="25.2" fill="#000000" transform="matrix(1.00, 0.00, -0.00, -1.00, 797.3, 456.3)">c</text><text xml:space="preserve" font-family="Helvetica-Light,Helvetica" font-size="25.2" fill="#000000" transform="matrix(1.00, 0.00, -0.00, -1.00, 811.3, 456.3)">c</text><text xml:space="preserve" font-family="Helvetica-Light,Helvetica" font-size="25.2" fill="#000000" transform="matrix(1.00, 0.00, -0.00, -1.00, 825.3, 456.3)">i</text><text xml:space="preserve" font-family="Helvetica-Light,Helvetica" font-size="25.2" fill="#000000" transform="matrix(1.00, 0.00, -0.00, -1.00, 830.9, 456.3)">ó</text><text xml:space="preserve" font-family="Helvetica-Light,Helvetica" font-size="25.2" fill="#000000" transform="matrix(1.00, 0.00, -0.00, -1.00, 844.9, 456.3)">n</text><text xml:space="preserve" font-family="Helvetica-Light,Helvetica" font-size="25.2" fill="#000000" transform="matrix(1.00, 0.00, -0.00, -1.00, 859.0, 456.3)"> </text><text xml:space="preserve" font-family="Helvetica-Light,Helvetica" font-size="25.2" fill="#000000" transform="matrix(1.00, 0.00, -0.00, -1.00, 866.0, 456.3)">y</text><text xml:space="preserve" font-family="Helvetica-Light,Helvetica" font-size="25.2" fill="#000000" transform="matrix(1.00, 0.00, -0.00, -1.00, 878.6, 456.3)"> </text><text xml:space="preserve" font-family="Helvetica-Light,Helvetica" font-size="25.2" fill="#000000" transform="matrix(1.00, 0.00, -0.00, -1.00, 885.6, 456.3)">r</text><text xml:space="preserve" font-family="Helvetica-Light,Helvetica" font-size="25.2" fill="#000000" transform="matrix(1.00, 0.00, -0.00, -1.00, 894.0, 456.3)">a</text><text xml:space="preserve" font-family="Helvetica-Light,Helvetica" font-size="25.2" fill="#000000" transform="matrix(1.00, 0.00, -0.00, -1.00, 908.0, 456.3)">s</text><text xml:space="preserve" font-family="Helvetica-Light,Helvetica" font-size="25.2" fill="#000000" transform="matrix(1.00, 0.00, -0.00, -1.00, 920.6, 456.3)">t</text><text xml:space="preserve" font-family="Helvetica-Light,Helvetica" font-size="25.2" fill="#000000" transform="matrix(1.00, 0.00, -0.00, -1.00, 927.6, 456.3)">r</text><text xml:space="preserve" font-family="Helvetica-Light,Helvetica" font-size="25.2" fill="#000000" transform="matrix(1.00, 0.00, -0.00, -1.00, 935.5, 456.3)">e</text><text xml:space="preserve" font-family="Helvetica-Light,Helvetica" font-size="25.2" fill="#000000" transform="matrix(1.00, 0.00, -0.00, -1.00, 949.5, 456.3)">o</text><text xml:space="preserve" font-family="Helvetica-Light,Helvetica" font-size="25.2" fill="#000000" transform="matrix(1.00, 0.00, -0.00, -1.00, 963.5, 456.3)"> </text><text xml:space="preserve" font-family="Helvetica-Light,Helvetica" font-size="25.2" fill="#000000" transform="matrix(1.00, 0.00, -0.00, -1.00, 578.8, 426.3)">d</text><text xml:space="preserve" font-family="Helvetica-Light,Helvetica" font-size="25.2" fill="#000000" transform="matrix(1.00, 0.00, -0.00, -1.00, 594.2, 426.3)">e</text><text xml:space="preserve" font-family="Helvetica-Light,Helvetica" font-size="25.2" fill="#000000" transform="matrix(1.00, 0.00, -0.00, -1.00, 608.2, 426.3)"> </text><text xml:space="preserve" font-family="Helvetica-Light,Helvetica" font-size="25.2" fill="#000000" transform="matrix(1.00, 0.00, -0.00, -1.00, 615.2, 426.3)">b</text><text xml:space="preserve" font-family="Helvetica-Light,Helvetica" font-size="25.2" fill="#000000" transform="matrix(1.00, 0.00, -0.00, -1.00, 630.6, 426.3)">l</text><text xml:space="preserve" font-family="Helvetica-Light,Helvetica" font-size="25.2" fill="#000000" transform="matrix(1.00, 0.00, -0.00, -1.00, 636.2, 426.3)">o</text><text xml:space="preserve" font-family="Helvetica-Light,Helvetica" font-size="25.2" fill="#000000" transform="matrix(1.00, 0.00, -0.00, -1.00, 650.2, 426.3)">b</text><text xml:space="preserve" font-family="Helvetica-Light,Helvetica" font-size="25.2" fill="#000000" transform="matrix(1.00, 0.00, -0.00, -1.00, 665.6, 426.3)">s</text><text xml:space="preserve" font-family="Helvetica-Light,Helvetica" font-size="25.2" fill="#000000" transform="matrix(1.00, 0.00, -0.00, -1.00, 678.2, 426.3)"> </text><text xml:space="preserve" font-family="Helvetica-Light,Helvetica" font-size="25.2" fill="#000000" transform="matrix(1.00, 0.00, -0.00, -1.00, 685.3, 426.3)">[</text><text xml:space="preserve" font-family="Helvetica-Light,Helvetica" font-size="25.2" fill="#000000" transform="matrix(1.00, 0.00, -0.00, -1.00, 693.6, 426.3)">1</text><text xml:space="preserve" font-family="Helvetica-Light,Helvetica" font-size="25.2" fill="#000000" transform="matrix(1.00, 0.00, -0.00, -1.00, 707.7, 426.3)">]</text><text xml:space="preserve" font-family="Helvetica-Light,Helvetica" font-size="25.2" fill="#000000" transform="matrix(1.00, 0.00, -0.00, -1.00, 716.0, 426.3)">.</text><text xml:space="preserve" font-family="Helvetica-Light,Helvetica" font-size="36.0" fill="#FEFFFE" transform="matrix(1.00, 0.00, -0.00, -1.00, 43.9, 475.1)">O</text><text xml:space="preserve" font-family="Helvetica-Light,Helvetica" font-size="36.0" fill="#FEFFFE" transform="matrix(1.00, 0.00, -0.00, -1.00, 71.9, 475.1)">r</text><text xml:space="preserve" font-family="Helvetica-Light,Helvetica" font-size="36.0" fill="#FEFFFE" transform="matrix(1.00, 0.00, -0.00, -1.00, 83.9, 475.1)">i</text><text xml:space="preserve" font-family="Helvetica-Light,Helvetica" font-size="36.0" fill="#FEFFFE" transform="matrix(1.00, 0.00, -0.00, -1.00, 91.9, 475.1)">g</text><text xml:space="preserve" font-family="Helvetica-Light,Helvetica" font-size="36.0" fill="#FEFFFE" transform="matrix(1.00, 0.00, -0.00, -1.00, 113.9, 475.1)">i</text><text xml:space="preserve" font-family="Helvetica-Light,Helvetica" font-size="36.0" fill="#FEFFFE" transform="matrix(1.00, 0.00, -0.00, -1.00, 121.9, 475.1)">n</text><text xml:space="preserve" font-family="Helvetica-Light,Helvetica" font-size="36.0" fill="#FEFFFE" transform="matrix(1.00, 0.00, -0.00, -1.00, 141.9, 475.1)">a</text><text xml:space="preserve" font-family="Helvetica-Light,Helvetica" font-size="36.0" fill="#FEFFFE" transform="matrix(1.00, 0.00, -0.00, -1.00, 161.9, 475.1)">l</text><text xml:space="preserve" font-family="Helvetica-Light,Helvetica" font-size="36.0" fill="#FEFFFE" transform="matrix(1.00, 0.00, -0.00, -1.00, 63.9, 267.3)">M</text><text xml:space="preserve" font-family="Helvetica-Light,Helvetica" font-size="36.0" fill="#FEFFFE" transform="matrix(1.00, 0.00, -0.00, -1.00, 93.9, 267.3)">O</text><text xml:space="preserve" font-family="Helvetica-Light,Helvetica" font-size="36.0" fill="#FEFFFE" transform="matrix(1.00, 0.00, -0.00, -1.00, 121.9, 267.3)">G</text><text xml:space="preserve" font-family="Helvetica-Light,Helvetica" font-size="36.0" fill="#FEFFFE" transform="matrix(1.00, 0.00, -0.00, -1.00, 81.5, 81.0)">G</text><text xml:space="preserve" font-family="Helvetica-Light,Helvetica" font-size="36.0" fill="#FEFFFE" transform="matrix(1.00, 0.00, -0.00, -1.00, 109.5, 81.0)">M</text><text xml:space="preserve" font-family="Helvetica-Light,Helvetica" font-size="36.0" fill="#FEFFFE" transform="matrix(1.00, 0.00, -0.00, -1.00, 139.5, 81.0)">G</text><text xml:space="preserve" font-family="Helvetica-Light,Helvetica" font-size="36.0" fill="#FEFFFE" transform="matrix(1.00, 0.00, -0.00, -1.00, 167.5, 81.0)"> </text><image xlink:href="../../1EA63FF4-90DE-46F3-B4ED-6A857B5E822B/assets/68CFB5527DB4032EC1411A7FCC8D2255.png" width="596.00" height="374.00" transform="matrix(0.75, 0.00, -0.00, -0.75, 30.0, 641.0)"></image><image xlink:href="../../1EA63FF4-90DE-46F3-B4ED-6A857B5E822B/assets/894DC751DEF42E465C058C18FA47400E.png" width="590.00" height="378.00" transform="matrix(0.76, 0.00, -0.00, -0.76, 32.0, 345.0)"></image><g><clipPath id="clip0x6080016a3f60"><path d="M 551.0 394.0 L 971.0 394.0 L 971.0 47.0 L 551.0 47.0 Z M 550.5 394.3 "></path></clipPath><g clip-path="url(#clip0x6080016a3f60)"><image xlink:href="../../1EA63FF4-90DE-46F3-B4ED-6A857B5E822B/assets/053DC5644F8F26704E8DA2ECAF57FF90.png" width="756.00" height="728.00" transform="matrix(0.56, 0.00, -0.00, -0.55, 551.0, 451.0)"></image></g></g></g></svg>