<?xml version="1.0" encoding="UTF-8" standalone="no"?><svg xmlns="http://www.w3.org/2000/svg" xmlns:xlink="http://www.w3.org/1999/xlink" clip-rule="evenodd" stroke-miterlimit="10" viewBox="0 0 1024 768"><desc>SVG generated by Keynote</desc><defs></defs><g transform="matrix(1.00, 0.00, -0.00, -1.00, 0.0, 768.0)"><path d="M 0.0 768.0 L 1024.0 768.0 L 1024.0 0.0 L 0.0 0.0 Z M 0.0 768.0 " fill="#FEFFFE"></path><text xml:space="preserve" font-family="Helvetica-Light,Helvetica" font-size="81.0" fill="#000000" transform="matrix(1.00, 0.00, -0.00, -1.00, 231.4, 354.6)">D</text><text xml:space="preserve" font-family="Helvetica-Light,Helvetica" font-size="81.0" fill="#000000" transform="matrix(1.00, 0.00, -0.00, -1.00, 289.9, 354.6)">a</text><text xml:space="preserve" font-family="Helvetica-Light,Helvetica" font-size="81.0" fill="#000000" transform="matrix(1.00, 0.00, -0.00, -1.00, 334.9, 354.6)">t</text><text xml:space="preserve" font-family="Helvetica-Light,Helvetica" font-size="81.0" fill="#000000" transform="matrix(1.00, 0.00, -0.00, -1.00, 357.4, 354.6)">o</text><text xml:space="preserve" font-family="Helvetica-Light,Helvetica" font-size="81.0" fill="#000000" transform="matrix(1.00, 0.00, -0.00, -1.00, 402.5, 354.6)">s</text><text xml:space="preserve" font-family="Helvetica-Light,Helvetica" font-size="81.0" fill="#000000" transform="matrix(1.00, 0.00, -0.00, -1.00, 443.0, 354.6)"> </text><text xml:space="preserve" font-family="Helvetica-Light,Helvetica" font-size="81.0" fill="#000000" transform="matrix(1.00, 0.00, -0.00, -1.00, 465.5, 354.6)">o</text><text xml:space="preserve" font-family="Helvetica-Light,Helvetica" font-size="81.0" fill="#000000" transform="matrix(1.00, 0.00, -0.00, -1.00, 510.5, 354.6)">b</text><text xml:space="preserve" font-family="Helvetica-Light,Helvetica" font-size="81.0" fill="#000000" transform="matrix(1.00, 0.00, -0.00, -1.00, 560.0, 354.6)">t</text><text xml:space="preserve" font-family="Helvetica-Light,Helvetica" font-size="81.0" fill="#000000" transform="matrix(1.00, 0.00, -0.00, -1.00, 582.5, 354.6)">e</text><text xml:space="preserve" font-family="Helvetica-Light,Helvetica" font-size="81.0" fill="#000000" transform="matrix(1.00, 0.00, -0.00, -1.00, 627.6, 354.6)">n</text><text xml:space="preserve" font-family="Helvetica-Light,Helvetica" font-size="81.0" fill="#000000" transform="matrix(1.00, 0.00, -0.00, -1.00, 672.6, 354.6)">i</text><text xml:space="preserve" font-family="Helvetica-Light,Helvetica" font-size="81.0" fill="#000000" transform="matrix(1.00, 0.00, -0.00, -1.00, 690.6, 354.6)">d</text><text xml:space="preserve" font-family="Helvetica-Light,Helvetica" font-size="81.0" fill="#000000" transform="matrix(1.00, 0.00, -0.00, -1.00, 740.1, 354.6)">o</text><text xml:space="preserve" font-family="Helvetica-Light,Helvetica" font-size="81.0" fill="#000000" transform="matrix(1.00, 0.00, -0.00, -1.00, 785.1, 354.6)">s</text><text xml:space="preserve" font-family="Helvetica-Light,Helvetica" font-size="36.0" fill="#FEFFFE" transform="matrix(1.00, 0.00, -0.00, -1.00, 43.9, 475.1)">O</text><text xml:space="preserve" font-family="Helvetica-Light,Helvetica" font-size="36.0" fill="#FEFFFE" transform="matrix(1.00, 0.00, -0.00, -1.00, 71.9, 475.1)">r</text><text xml:space="preserve" font-family="Helvetica-Light,Helvetica" font-size="36.0" fill="#FEFFFE" transform="matrix(1.00, 0.00, -0.00, -1.00, 83.9, 475.1)">i</text><text xml:space="preserve" font-family="Helvetica-Light,Helvetica" font-size="36.0" fill="#FEFFFE" transform="matrix(1.00, 0.00, -0.00, -1.00, 91.9, 475.1)">g</text><text xml:space="preserve" font-family="Helvetica-Light,Helvetica" font-size="36.0" fill="#FEFFFE" transform="matrix(1.00, 0.00, -0.00, -1.00, 113.9, 475.1)">i</text><text xml:space="preserve" font-family="Helvetica-Light,Helvetica" font-size="36.0" fill="#FEFFFE" transform="matrix(1.00, 0.00, -0.00, -1.00, 121.9, 475.1)">n</text><text xml:space="preserve" font-family="Helvetica-Light,Helvetica" font-size="36.0" fill="#FEFFFE" transform="matrix(1.00, 0.00, -0.00, -1.00, 141.9, 475.1)">a</text><text xml:space="preserve" font-family="Helvetica-Light,Helvetica" font-size="36.0" fill="#FEFFFE" transform="matrix(1.00, 0.00, -0.00, -1.00, 161.9, 475.1)">l</text><text xml:space="preserve" font-family="Helvetica-Light,Helvetica" font-size="36.0" fill="#FEFFFE" transform="matrix(1.00, 0.00, -0.00, -1.00, 63.9, 267.3)">M</text><text xml:space="preserve" font-family="Helvetica-Light,Helvetica" font-size="36.0" fill="#FEFFFE" transform="matrix(1.00, 0.00, -0.00, -1.00, 93.9, 267.3)">O</text><text xml:space="preserve" font-family="Helvetica-Light,Helvetica" font-size="36.0" fill="#FEFFFE" transform="matrix(1.00, 0.00, -0.00, -1.00, 121.9, 267.3)">G</text><text xml:space="preserve" font-family="Helvetica-Light,Helvetica" font-size="36.0" fill="#FEFFFE" transform="matrix(1.00, 0.00, -0.00, -1.00, 81.5, 81.0)">G</text><text xml:space="preserve" font-family="Helvetica-Light,Helvetica" font-size="36.0" fill="#FEFFFE" transform="matrix(1.00, 0.00, -0.00, -1.00, 109.5, 81.0)">M</text><text xml:space="preserve" font-family="Helvetica-Light,Helvetica" font-size="36.0" fill="#FEFFFE" transform="matrix(1.00, 0.00, -0.00, -1.00, 139.5, 81.0)">G</text><text xml:space="preserve" font-family="Helvetica-Light,Helvetica" font-size="36.0" fill="#FEFFFE" transform="matrix(1.00, 0.00, -0.00, -1.00, 167.5, 81.0)"> </text></g></svg>