<?xml version="1.0" encoding="UTF-8" standalone="no"?><svg xmlns="http://www.w3.org/2000/svg" xmlns:xlink="http://www.w3.org/1999/xlink" clip-rule="evenodd" stroke-miterlimit="10" viewBox="0 0 1024 768"><desc>SVG generated by Keynote</desc><defs></defs><g transform="matrix(1.00, 0.00, -0.00, -1.00, 0.0, 768.0)"><path d="M 0.0 768.0 L 1024.0 768.0 L 1024.0 0.0 L 0.0 0.0 Z M 0.0 768.0 " fill="#FEFFFF"></path><g><clipPath id="clip0x600000abcf20"><path d="M 529.0 367.0 L 949.0 367.0 L 949.0 70.0 L 529.0 70.0 Z M 529.0 367.0 "></path></clipPath><g clip-path="url(#clip0x600000abcf20)"><image xlink:href="../../54550A25-268B-4FC1-A7EB-0EAA4B9599CF/assets/4E60002CCC816A362DF8C1AF636C69E9.png" width="283.00" height="307.00" transform="matrix(1.52, 0.00, -0.00, -1.52, 524.0, 494.0)"></image></g></g><g><clipPath id="clip0x608000eb2d20"><path d="M 529.0 698.0 L 949.0 698.0 L 949.0 401.0 L 529.0 401.0 Z M 529.5 698.0 "></path></clipPath><g clip-path="url(#clip0x608000eb2d20)"><image xlink:href="../../54550A25-268B-4FC1-A7EB-0EAA4B9599CF/assets/223C5626D8B9F9D56AB3BBEAFEE5ABE5.png" width="1448.00" height="966.00" transform="matrix(0.31, 0.00, -0.00, -0.31, 517.0, 698.0)"></image></g></g><g><clipPath id="clip0x6080008b59c0"><path d="M 75.0 698.0 L 495.0 698.0 L 495.0 70.0 L 75.0 70.0 Z M 75.0 698.0 "></path></clipPath><g clip-path="url(#clip0x6080008b59c0)"><image xlink:href="../../54550A25-268B-4FC1-A7EB-0EAA4B9599CF/assets/C4E497BDDC2F165AA3E3F97C7B57CB91.png" width="174.00" height="318.00" transform="matrix(2.41, 0.00, -0.00, -2.42, 75.0, 768.0)"></image></g></g></g></svg>