<?xml version="1.0" encoding="UTF-8" standalone="no"?><svg xmlns="http://www.w3.org/2000/svg" xmlns:xlink="http://www.w3.org/1999/xlink" clip-rule="evenodd" stroke-miterlimit="10" viewBox="0 0 1024 768"><desc>SVG generated by Keynote</desc><defs></defs><g transform="matrix(1.00, 0.00, -0.00, -1.00, 0.0, 768.0)"><path d="M 0.0 768.0 L 1024.0 768.0 L 1024.0 0.0 L 0.0 0.0 Z M 0.0 768.0 " fill="#FEFFFF"></path><g><clipPath id="clip0x6000008b5f00"><path d="M 110.0 510.0 L 880.0 510.0 L 880.0 44.0 L 110.0 44.0 Z M 110.2 509.8 "></path></clipPath><g clip-path="url(#clip0x6000008b5f00)"><image xlink:href="../../C4D911ED-3911-4D04-A62D-0BBEAF728E6A/assets/9E4FA8522E051F1E773ABD6B2A6BCD9C.png" width="772.00" height="650.00" transform="matrix(1.00, 0.00, -0.00, -1.00, 110.0, 601.0)"></image></g></g><text xml:space="preserve" font-family="Helvetica-Light,Helvetica" font-size="63.2" fill="#000000" transform="matrix(1.00, 0.00, -0.00, -1.00, 106.9, 655.5)">P</text><text xml:space="preserve" font-family="Helvetica-Light,Helvetica" font-size="63.2" fill="#000000" transform="matrix(1.00, 0.00, -0.00, -1.00, 145.5, 655.5)">r</text><text xml:space="preserve" font-family="Helvetica-Light,Helvetica" font-size="63.2" fill="#000000" transform="matrix(1.00, 0.00, -0.00, -1.00, 165.4, 655.5)">o</text><text xml:space="preserve" font-family="Helvetica-Light,Helvetica" font-size="63.2" fill="#000000" transform="matrix(1.00, 0.00, -0.00, -1.00, 200.6, 655.5)">b</text><text xml:space="preserve" font-family="Helvetica-Light,Helvetica" font-size="63.2" fill="#000000" transform="matrix(1.00, 0.00, -0.00, -1.00, 239.2, 655.5)">l</text><text xml:space="preserve" font-family="Helvetica-Light,Helvetica" font-size="63.2" fill="#000000" transform="matrix(1.00, 0.00, -0.00, -1.00, 253.2, 655.5)">e</text><text xml:space="preserve" font-family="Helvetica-Light,Helvetica" font-size="63.2" fill="#000000" transform="matrix(1.00, 0.00, -0.00, -1.00, 288.4, 655.5)">m</text><text xml:space="preserve" font-family="Helvetica-Light,Helvetica" font-size="63.2" fill="#000000" transform="matrix(1.00, 0.00, -0.00, -1.00, 341.0, 655.5)">a</text><text xml:space="preserve" font-family="Helvetica-Light,Helvetica" font-size="63.2" fill="#000000" transform="matrix(1.00, 0.00, -0.00, -1.00, 376.2, 655.5)">s</text><text xml:space="preserve" font-family="Helvetica-Light,Helvetica" font-size="63.2" fill="#000000" transform="matrix(1.00, 0.00, -0.00, -1.00, 407.8, 655.5)"> </text><text xml:space="preserve" font-family="Helvetica-Light,Helvetica" font-size="63.2" fill="#000000" transform="matrix(1.00, 0.00, -0.00, -1.00, 425.3, 655.5)">n</text><text xml:space="preserve" font-family="Helvetica-Light,Helvetica" font-size="63.2" fill="#000000" transform="matrix(1.00, 0.00, -0.00, -1.00, 460.5, 655.5)">o</text><text xml:space="preserve" font-family="Helvetica-Light,Helvetica" font-size="63.2" fill="#000000" transform="matrix(1.00, 0.00, -0.00, -1.00, 495.6, 655.5)"> </text><text xml:space="preserve" font-family="Helvetica-Light,Helvetica" font-size="63.2" fill="#000000" transform="matrix(1.00, 0.00, -0.00, -1.00, 513.2, 655.5)">c</text><text xml:space="preserve" font-family="Helvetica-Light,Helvetica" font-size="63.2" fill="#000000" transform="matrix(1.00, 0.00, -0.00, -1.00, 548.3, 655.5)">o</text><text xml:space="preserve" font-family="Helvetica-Light,Helvetica" font-size="63.2" fill="#000000" transform="matrix(1.00, 0.00, -0.00, -1.00, 583.4, 655.5)">n</text><text xml:space="preserve" font-family="Helvetica-Light,Helvetica" font-size="63.2" fill="#000000" transform="matrix(1.00, 0.00, -0.00, -1.00, 618.6, 655.5)">t</text><text xml:space="preserve" font-family="Helvetica-Light,Helvetica" font-size="63.2" fill="#000000" transform="matrix(1.00, 0.00, -0.00, -1.00, 636.2, 655.5)">e</text><text xml:space="preserve" font-family="Helvetica-Light,Helvetica" font-size="63.2" fill="#000000" transform="matrix(1.00, 0.00, -0.00, -1.00, 671.3, 655.5)">m</text><text xml:space="preserve" font-family="Helvetica-Light,Helvetica" font-size="63.2" fill="#000000" transform="matrix(1.00, 0.00, -0.00, -1.00, 723.9, 655.5)">p</text><text xml:space="preserve" font-family="Helvetica-Light,Helvetica" font-size="63.2" fill="#000000" transform="matrix(1.00, 0.00, -0.00, -1.00, 762.6, 655.5)">l</text><text xml:space="preserve" font-family="Helvetica-Light,Helvetica" font-size="63.2" fill="#000000" transform="matrix(1.00, 0.00, -0.00, -1.00, 776.6, 655.5)">a</text><text xml:space="preserve" font-family="Helvetica-Light,Helvetica" font-size="63.2" fill="#000000" transform="matrix(1.00, 0.00, -0.00, -1.00, 811.7, 655.5)">d</text><text xml:space="preserve" font-family="Helvetica-Light,Helvetica" font-size="63.2" fill="#000000" transform="matrix(1.00, 0.00, -0.00, -1.00, 850.3, 655.5)">o</text><text xml:space="preserve" font-family="Helvetica-Light,Helvetica" font-size="63.2" fill="#000000" transform="matrix(1.00, 0.00, -0.00, -1.00, 885.5, 655.5)">s</text><text xml:space="preserve" font-family="Helvetica-Light,Helvetica" font-size="35.2" fill="#000000" transform="matrix(1.00, 0.00, -0.00, -1.00, 333.0, 571.5)">S</text><text xml:space="preserve" font-family="Helvetica-Light,Helvetica" font-size="35.2" fill="#000000" transform="matrix(1.00, 0.00, -0.00, -1.00, 354.6, 571.5)">e</text><text xml:space="preserve" font-family="Helvetica-Light,Helvetica" font-size="35.2" fill="#000000" transform="matrix(1.00, 0.00, -0.00, -1.00, 374.1, 571.5)">n</text><text xml:space="preserve" font-family="Helvetica-Light,Helvetica" font-size="35.2" fill="#000000" transform="matrix(1.00, 0.00, -0.00, -1.00, 393.7, 571.5)">s</text><text xml:space="preserve" font-family="Helvetica-Light,Helvetica" font-size="35.2" fill="#000000" transform="matrix(1.00, 0.00, -0.00, -1.00, 411.3, 571.5)">i</text><text xml:space="preserve" font-family="Helvetica-Light,Helvetica" font-size="35.2" fill="#000000" transform="matrix(1.00, 0.00, -0.00, -1.00, 419.1, 571.5)">b</text><text xml:space="preserve" font-family="Helvetica-Light,Helvetica" font-size="35.2" fill="#000000" transform="matrix(1.00, 0.00, -0.00, -1.00, 440.6, 571.5)">i</text><text xml:space="preserve" font-family="Helvetica-Light,Helvetica" font-size="35.2" fill="#000000" transform="matrix(1.00, 0.00, -0.00, -1.00, 448.4, 571.5)">l</text><text xml:space="preserve" font-family="Helvetica-Light,Helvetica" font-size="35.2" fill="#000000" transform="matrix(1.00, 0.00, -0.00, -1.00, 456.2, 571.5)">i</text><text xml:space="preserve" font-family="Helvetica-Light,Helvetica" font-size="35.2" fill="#000000" transform="matrix(1.00, 0.00, -0.00, -1.00, 464.1, 571.5)">d</text><text xml:space="preserve" font-family="Helvetica-Light,Helvetica" font-size="35.2" fill="#000000" transform="matrix(1.00, 0.00, -0.00, -1.00, 485.6, 571.5)">a</text><text xml:space="preserve" font-family="Helvetica-Light,Helvetica" font-size="35.2" fill="#000000" transform="matrix(1.00, 0.00, -0.00, -1.00, 505.1, 571.5)">d</text><text xml:space="preserve" font-family="Helvetica-Light,Helvetica" font-size="35.2" fill="#000000" transform="matrix(1.00, 0.00, -0.00, -1.00, 526.6, 571.5)"> </text><text xml:space="preserve" font-family="Helvetica-Light,Helvetica" font-size="35.2" fill="#000000" transform="matrix(1.00, 0.00, -0.00, -1.00, 536.4, 571.5)">a</text><text xml:space="preserve" font-family="Helvetica-Light,Helvetica" font-size="35.2" fill="#000000" transform="matrix(1.00, 0.00, -0.00, -1.00, 556.0, 571.5)">l</text><text xml:space="preserve" font-family="Helvetica-Light,Helvetica" font-size="35.2" fill="#000000" transform="matrix(1.00, 0.00, -0.00, -1.00, 563.8, 571.5)"> </text><text xml:space="preserve" font-family="Helvetica-Light,Helvetica" font-size="35.2" fill="#000000" transform="matrix(1.00, 0.00, -0.00, -1.00, 573.6, 571.5)">r</text><text xml:space="preserve" font-family="Helvetica-Light,Helvetica" font-size="35.2" fill="#000000" transform="matrix(1.00, 0.00, -0.00, -1.00, 585.3, 571.5)">u</text><text xml:space="preserve" font-family="Helvetica-Light,Helvetica" font-size="35.2" fill="#000000" transform="matrix(1.00, 0.00, -0.00, -1.00, 604.9, 571.5)">i</text><text xml:space="preserve" font-family="Helvetica-Light,Helvetica" font-size="35.2" fill="#000000" transform="matrix(1.00, 0.00, -0.00, -1.00, 612.7, 571.5)">d</text><text xml:space="preserve" font-family="Helvetica-Light,Helvetica" font-size="35.2" fill="#000000" transform="matrix(1.00, 0.00, -0.00, -1.00, 634.2, 571.5)">o</text><text xml:space="preserve" font-family="Helvetica-Light,Helvetica" font-size="35.2" fill="#000000" transform="matrix(1.00, 0.00, -0.00, -1.00, 653.8, 571.5)">,</text><text xml:space="preserve" font-family="Helvetica-Light,Helvetica" font-size="35.2" fill="#000000" transform="matrix(1.00, 0.00, -0.00, -1.00, 663.6, 571.5)"> </text><text xml:space="preserve" font-family="Helvetica-Light,Helvetica" font-size="35.2" fill="#000000" transform="matrix(1.00, 0.00, -0.00, -1.00, 673.4, 571.5)">y</text><text xml:space="preserve" font-family="Helvetica-Light,Helvetica" font-size="35.2" fill="#000000" transform="matrix(1.00, 0.00, -0.00, -1.00, 691.0, 571.5)"> </text><text xml:space="preserve" font-family="Helvetica-Light,Helvetica" font-size="35.2" fill="#000000" transform="matrix(1.00, 0.00, -0.00, -1.00, 329.1, 529.5)">l</text><text xml:space="preserve" font-family="Helvetica-Light,Helvetica" font-size="35.2" fill="#000000" transform="matrix(1.00, 0.00, -0.00, -1.00, 336.9, 529.5)">a</text><text xml:space="preserve" font-family="Helvetica-Light,Helvetica" font-size="35.2" fill="#000000" transform="matrix(1.00, 0.00, -0.00, -1.00, 356.5, 529.5)"> </text><text xml:space="preserve" font-family="Helvetica-Light,Helvetica" font-size="35.2" fill="#000000" transform="matrix(1.00, 0.00, -0.00, -1.00, 366.3, 529.5)">e</text><text xml:space="preserve" font-family="Helvetica-Light,Helvetica" font-size="35.2" fill="#000000" transform="matrix(1.00, 0.00, -0.00, -1.00, 385.9, 529.5)">s</text><text xml:space="preserve" font-family="Helvetica-Light,Helvetica" font-size="35.2" fill="#000000" transform="matrix(1.00, 0.00, -0.00, -1.00, 403.5, 529.5)">t</text><text xml:space="preserve" font-family="Helvetica-Light,Helvetica" font-size="35.2" fill="#000000" transform="matrix(1.00, 0.00, -0.00, -1.00, 413.2, 529.5)">a</text><text xml:space="preserve" font-family="Helvetica-Light,Helvetica" font-size="35.2" fill="#000000" transform="matrix(1.00, 0.00, -0.00, -1.00, 432.8, 529.5)">b</text><text xml:space="preserve" font-family="Helvetica-Light,Helvetica" font-size="35.2" fill="#000000" transform="matrix(1.00, 0.00, -0.00, -1.00, 454.3, 529.5)">i</text><text xml:space="preserve" font-family="Helvetica-Light,Helvetica" font-size="35.2" fill="#000000" transform="matrix(1.00, 0.00, -0.00, -1.00, 462.1, 529.5)">l</text><text xml:space="preserve" font-family="Helvetica-Light,Helvetica" font-size="35.2" fill="#000000" transform="matrix(1.00, 0.00, -0.00, -1.00, 470.0, 529.5)">i</text><text xml:space="preserve" font-family="Helvetica-Light,Helvetica" font-size="35.2" fill="#000000" transform="matrix(1.00, 0.00, -0.00, -1.00, 477.8, 529.5)">d</text><text xml:space="preserve" font-family="Helvetica-Light,Helvetica" font-size="35.2" fill="#000000" transform="matrix(1.00, 0.00, -0.00, -1.00, 499.3, 529.5)">a</text><text xml:space="preserve" font-family="Helvetica-Light,Helvetica" font-size="35.2" fill="#000000" transform="matrix(1.00, 0.00, -0.00, -1.00, 518.8, 529.5)">d</text><text xml:space="preserve" font-family="Helvetica-Light,Helvetica" font-size="35.2" fill="#000000" transform="matrix(1.00, 0.00, -0.00, -1.00, 540.4, 529.5)"> </text><text xml:space="preserve" font-family="Helvetica-Light,Helvetica" font-size="35.2" fill="#000000" transform="matrix(1.00, 0.00, -0.00, -1.00, 550.1, 529.5)">d</text><text xml:space="preserve" font-family="Helvetica-Light,Helvetica" font-size="35.2" fill="#000000" transform="matrix(1.00, 0.00, -0.00, -1.00, 571.6, 529.5)">e</text><text xml:space="preserve" font-family="Helvetica-Light,Helvetica" font-size="35.2" fill="#000000" transform="matrix(1.00, 0.00, -0.00, -1.00, 591.2, 529.5)">l</text><text xml:space="preserve" font-family="Helvetica-Light,Helvetica" font-size="35.2" fill="#000000" transform="matrix(1.00, 0.00, -0.00, -1.00, 599.0, 529.5)"> </text><text xml:space="preserve" font-family="Helvetica-Light,Helvetica" font-size="35.2" fill="#000000" transform="matrix(1.00, 0.00, -0.00, -1.00, 608.8, 529.5)">v</text><text xml:space="preserve" font-family="Helvetica-Light,Helvetica" font-size="35.2" fill="#000000" transform="matrix(1.00, 0.00, -0.00, -1.00, 626.4, 529.5)">i</text><text xml:space="preserve" font-family="Helvetica-Light,Helvetica" font-size="35.2" fill="#000000" transform="matrix(1.00, 0.00, -0.00, -1.00, 634.2, 529.5)">d</text><text xml:space="preserve" font-family="Helvetica-Light,Helvetica" font-size="35.2" fill="#000000" transform="matrix(1.00, 0.00, -0.00, -1.00, 655.7, 529.5)">e</text><text xml:space="preserve" font-family="Helvetica-Light,Helvetica" font-size="35.2" fill="#000000" transform="matrix(1.00, 0.00, -0.00, -1.00, 675.3, 529.5)">o</text><g><clipPath id="clip0x6080016b19a0"><path d="M 631.0 440.0 L 970.0 440.0 L 970.0 114.0 L 631.0 114.0 Z M 630.9 439.8 "></path></clipPath><g clip-path="url(#clip0x6080016b19a0)"><image xlink:href="../../C4D911ED-3911-4D04-A62D-0BBEAF728E6A/assets/B934D1E4B3E2D7F71685D19844D404AC.png" width="592.00" height="538.00" transform="matrix(0.61, 0.00, -0.00, -0.61, 631.0, 440.0)"></image></g></g></g></svg>